<?xml version="1.0" encoding="utf-8"?>
<svg width="1363" height="167" viewBox="0 0 1363 167" fill="none" xmlns="http://www.w3.org/2000/svg" xmlns:bx="https://boxy-svg.com">
  <defs>
    <style bx:fonts="Nunito Sans">@import url(https://fonts.googleapis.com/css2?family=Nunito+Sans%3Aital%2Cwght%400%2C200%3B0%2C300%3B0%2C400%3B0%2C600%3B0%2C700%3B0%2C800%3B0%2C900%3B1%2C200%3B1%2C300%3B1%2C400%3B1%2C600%3B1%2C700%3B1%2C800%3B1%2C900&amp;display=swap);</style>
  </defs>
  <rect width="1363" height="167" rx="15" fill="#F0F0F0"/>
  <path d="M0 15C0 6.71573 6.71573 0 15 0H37V167H15C6.71573 167 0 160.284 0 152V15Z" fill="#424241"/>
  <path d="M107.205 104.146H99.251V98.1909H107.205C108.289 98.1909 109.168 98.0078 109.842 97.6416C110.516 97.2754 111.006 96.77 111.314 96.1255C111.636 95.4663 111.797 94.7266 111.797 93.9062C111.797 93.0273 111.636 92.2144 111.314 91.4673C111.006 90.7202 110.516 90.1196 109.842 89.6655C109.168 89.1968 108.289 88.9624 107.205 88.9624H102.151V115H94.439V83.0078H107.205C109.769 83.0078 111.973 83.4766 113.819 84.4141C115.679 85.3516 117.107 86.6406 118.104 88.2812C119.1 89.9072 119.598 91.7676 119.598 93.8623C119.598 95.9277 119.1 97.7295 118.104 99.2676C117.107 100.806 115.679 102.007 113.819 102.871C111.973 103.721 109.769 104.146 107.205 104.146ZM130.87 97.1143V115H123.465V91.2256H130.386L130.87 97.1143ZM137.901 91.0498L137.769 97.9272C137.476 97.8979 137.081 97.8613 136.583 97.8174C136.084 97.7734 135.667 97.7515 135.33 97.7515C134.466 97.7515 133.719 97.854 133.089 98.0591C132.474 98.2495 131.961 98.5425 131.551 98.938C131.155 99.3188 130.862 99.8022 130.672 100.388C130.496 100.974 130.416 101.655 130.43 102.432L129.09 101.553C129.09 99.9561 129.244 98.5059 129.551 97.2021C129.874 95.8838 130.328 94.7485 130.914 93.7964C131.5 92.8296 132.21 92.0898 133.045 91.5771C133.88 91.0498 134.817 90.7861 135.857 90.7861C136.224 90.7861 136.583 90.8081 136.934 90.8521C137.3 90.896 137.623 90.9619 137.901 91.0498ZM138.736 103.354V102.893C138.736 101.15 138.985 99.5459 139.483 98.0811C139.981 96.6016 140.713 95.3198 141.68 94.2358C142.647 93.1519 143.841 92.3096 145.262 91.709C146.683 91.0938 148.323 90.7861 150.184 90.7861C152.059 90.7861 153.707 91.0938 155.127 91.709C156.563 92.3096 157.764 93.1519 158.731 94.2358C159.698 95.3198 160.43 96.6016 160.928 98.0811C161.426 99.5459 161.675 101.15 161.675 102.893V103.354C161.675 105.083 161.426 106.687 160.928 108.167C160.43 109.631 159.698 110.913 158.731 112.012C157.764 113.096 156.57 113.938 155.149 114.539C153.729 115.139 152.088 115.439 150.228 115.439C148.367 115.439 146.719 115.139 145.284 114.539C143.848 113.938 142.647 113.096 141.68 112.012C140.713 110.913 139.981 109.631 139.483 108.167C138.985 106.687 138.736 105.083 138.736 103.354ZM146.141 102.893V103.354C146.141 104.248 146.207 105.083 146.338 105.859C146.47 106.636 146.69 107.317 146.998 107.903C147.305 108.474 147.723 108.921 148.25 109.243C148.777 109.565 149.437 109.727 150.228 109.727C151.004 109.727 151.648 109.565 152.161 109.243C152.688 108.921 153.106 108.474 153.414 107.903C153.721 107.317 153.941 106.636 154.073 105.859C154.205 105.083 154.271 104.248 154.271 103.354V102.893C154.271 102.029 154.205 101.216 154.073 100.454C153.941 99.6777 153.721 98.9966 153.414 98.4106C153.106 97.8101 152.688 97.3413 152.161 97.0044C151.634 96.6675 150.975 96.499 150.184 96.499C149.407 96.499 148.755 96.6675 148.228 97.0044C147.715 97.3413 147.305 97.8101 146.998 98.4106C146.69 98.9966 146.47 99.6777 146.338 100.454C146.207 101.216 146.141 102.029 146.141 102.893ZM165.521 91.2256H172.947V115.769C172.947 117.673 172.581 119.277 171.849 120.581C171.116 121.899 170.069 122.896 168.707 123.569C167.344 124.258 165.718 124.602 163.829 124.602C163.199 124.602 162.62 124.573 162.093 124.514C161.551 124.47 160.958 124.375 160.313 124.229V118.625C160.694 118.684 161.045 118.728 161.368 118.757C161.69 118.801 162.042 118.823 162.422 118.823C163.096 118.823 163.66 118.713 164.114 118.494C164.568 118.274 164.913 117.937 165.147 117.483C165.396 117.029 165.521 116.458 165.521 115.769V91.2256ZM164.971 85.0952C164.971 84.0405 165.352 83.1763 166.114 82.5024C166.875 81.8286 167.864 81.4917 169.08 81.4917C170.296 81.4917 171.285 81.8286 172.046 82.5024C172.808 83.1763 173.189 84.0405 173.189 85.0952C173.189 86.1499 172.808 87.0142 172.046 87.688C171.285 88.3618 170.296 88.6987 169.08 88.6987C167.864 88.6987 166.875 88.3618 166.114 87.688C165.352 87.0142 164.971 86.1499 164.971 85.0952ZM188.658 115.439C186.724 115.439 184.996 115.139 183.472 114.539C181.949 113.923 180.66 113.081 179.605 112.012C178.565 110.942 177.767 109.712 177.21 108.32C176.668 106.929 176.397 105.457 176.397 103.904V103.069C176.397 101.326 176.639 99.7144 177.122 98.2349C177.605 96.7407 178.323 95.437 179.275 94.3237C180.228 93.2104 181.421 92.3462 182.857 91.731C184.292 91.1011 185.962 90.7861 187.867 90.7861C189.551 90.7861 191.06 91.0571 192.393 91.5991C193.726 92.1411 194.854 92.9175 195.777 93.9282C196.714 94.939 197.425 96.1621 197.908 97.5977C198.406 99.0332 198.655 100.645 198.655 102.432V105.442H179.231V100.806H191.426V100.234C191.441 99.4434 191.302 98.7695 191.009 98.2129C190.73 97.6562 190.32 97.2314 189.778 96.9385C189.236 96.6455 188.577 96.499 187.801 96.499C186.995 96.499 186.329 96.6748 185.801 97.0264C185.289 97.3779 184.886 97.8613 184.593 98.4766C184.314 99.0771 184.117 99.7729 184 100.564C183.882 101.355 183.824 102.19 183.824 103.069V103.904C183.824 104.783 183.941 105.581 184.175 106.299C184.424 107.017 184.776 107.632 185.23 108.145C185.699 108.643 186.255 109.031 186.9 109.309C187.559 109.587 188.306 109.727 189.141 109.727C190.152 109.727 191.148 109.536 192.129 109.155C193.111 108.774 193.953 108.145 194.656 107.266L198.018 111.265C197.535 111.953 196.846 112.62 195.953 113.264C195.074 113.909 194.019 114.436 192.789 114.846C191.558 115.242 190.181 115.439 188.658 115.439ZM211.707 109.727C212.396 109.727 212.981 109.602 213.465 109.353C213.963 109.089 214.336 108.723 214.585 108.254C214.849 107.771 214.974 107.192 214.959 106.519H221.924C221.939 108.306 221.5 109.873 220.606 111.221C219.727 112.554 218.526 113.594 217.002 114.341C215.494 115.073 213.787 115.439 211.883 115.439C210.022 115.439 208.396 115.139 207.005 114.539C205.613 113.923 204.449 113.074 203.511 111.99C202.588 110.891 201.893 109.609 201.424 108.145C200.97 106.68 200.743 105.09 200.743 103.376V102.871C200.743 101.157 200.97 99.5679 201.424 98.103C201.893 96.6235 202.588 95.3418 203.511 94.2578C204.449 93.1592 205.606 92.3096 206.983 91.709C208.375 91.0938 209.993 90.7861 211.839 90.7861C213.816 90.7861 215.56 91.1597 217.068 91.9067C218.592 92.6538 219.786 93.7378 220.65 95.1587C221.514 96.5796 221.939 98.3008 221.924 100.322H214.959C214.974 99.6045 214.864 98.96 214.629 98.3887C214.395 97.8174 214.029 97.3633 213.531 97.0264C213.047 96.6748 212.425 96.499 211.663 96.499C210.901 96.499 210.286 96.6675 209.817 97.0044C209.349 97.3413 208.99 97.8101 208.741 98.4106C208.506 98.9966 208.345 99.6704 208.257 100.432C208.184 101.194 208.147 102.007 208.147 102.871V103.376C208.147 104.255 208.184 105.083 208.257 105.859C208.345 106.621 208.514 107.295 208.763 107.881C209.012 108.452 209.371 108.906 209.839 109.243C210.308 109.565 210.931 109.727 211.707 109.727ZM237.613 91.2256V96.3672H223.287V91.2256H237.613ZM226.297 85.3149H233.702V107.244C233.702 107.874 233.775 108.364 233.921 108.716C234.068 109.053 234.317 109.294 234.668 109.441C235.035 109.573 235.518 109.639 236.119 109.639C236.543 109.639 236.895 109.631 237.173 109.617C237.452 109.587 237.715 109.551 237.964 109.507V114.802C237.334 115.007 236.675 115.161 235.987 115.264C235.298 115.381 234.566 115.439 233.79 115.439C232.208 115.439 230.853 115.19 229.725 114.692C228.611 114.194 227.762 113.411 227.176 112.341C226.59 111.272 226.297 109.88 226.297 108.167V85.3149ZM264.881 104.146H256.927V98.1909H264.881C265.965 98.1909 266.844 98.0078 267.518 97.6416C268.191 97.2754 268.682 96.77 268.99 96.1255C269.312 95.4663 269.473 94.7266 269.473 93.9062C269.473 93.0273 269.312 92.2144 268.99 91.4673C268.682 90.7202 268.191 90.1196 267.518 89.6655C266.844 89.1968 265.965 88.9624 264.881 88.9624H259.827V115H252.115V83.0078H264.881C267.444 83.0078 269.649 83.4766 271.495 84.4141C273.355 85.3516 274.783 86.6406 275.779 88.2812C276.775 89.9072 277.273 91.7676 277.273 93.8623C277.273 95.9277 276.775 97.7295 275.779 99.2676C274.783 100.806 273.355 102.007 271.495 102.871C269.649 103.721 267.444 104.146 264.881 104.146ZM288.326 81.25V115H280.921V81.25H288.326ZM287.447 102.3L285.711 102.344C285.711 100.674 285.916 99.1357 286.326 97.7295C286.736 96.3232 287.322 95.1001 288.084 94.0601C288.846 93.02 289.761 92.2144 290.831 91.6431C291.9 91.0718 293.086 90.7861 294.39 90.7861C295.562 90.7861 296.631 90.9546 297.598 91.2915C298.58 91.6284 299.422 92.1704 300.125 92.9175C300.843 93.6646 301.392 94.6387 301.773 95.8398C302.168 97.041 302.366 98.5059 302.366 100.234V115H294.917V100.19C294.917 99.2236 294.778 98.4766 294.5 97.9492C294.236 97.4072 293.855 97.0337 293.357 96.8286C292.859 96.6089 292.251 96.499 291.534 96.499C290.669 96.499 289.966 96.6455 289.424 96.9385C288.882 97.2314 288.465 97.6416 288.172 98.1689C287.894 98.6816 287.703 99.2896 287.601 99.9927C287.498 100.696 287.447 101.465 287.447 102.3ZM314.297 91.2256V115H306.871V91.2256H314.297ZM306.431 85.0952C306.431 84.0405 306.812 83.1763 307.574 82.5024C308.335 81.8286 309.324 81.4917 310.54 81.4917C311.756 81.4917 312.745 81.8286 313.506 82.5024C314.268 83.1763 314.649 84.0405 314.649 85.0952C314.649 86.1499 314.268 87.0142 313.506 87.688C312.745 88.3618 311.756 88.6987 310.54 88.6987C309.324 88.6987 308.335 88.3618 307.574 87.688C306.812 87.0142 306.431 86.1499 306.431 85.0952ZM326.69 81.25V115H319.263V81.25H326.69ZM330.337 103.354V102.893C330.337 101.15 330.586 99.5459 331.084 98.0811C331.583 96.6016 332.315 95.3198 333.282 94.2358C334.249 93.1519 335.442 92.3096 336.863 91.709C338.284 91.0938 339.925 90.7861 341.785 90.7861C343.66 90.7861 345.308 91.0938 346.729 91.709C348.165 92.3096 349.366 93.1519 350.333 94.2358C351.299 95.3198 352.032 96.6016 352.53 98.0811C353.028 99.5459 353.277 101.15 353.277 102.893V103.354C353.277 105.083 353.028 106.687 352.53 108.167C352.032 109.631 351.299 110.913 350.333 112.012C349.366 113.096 348.172 113.938 346.751 114.539C345.33 115.139 343.689 115.439 341.829 115.439C339.969 115.439 338.321 115.139 336.885 114.539C335.45 113.938 334.249 113.096 333.282 112.012C332.315 110.913 331.583 109.631 331.084 108.167C330.586 106.687 330.337 105.083 330.337 103.354ZM337.742 102.893V103.354C337.742 104.248 337.808 105.083 337.94 105.859C338.072 106.636 338.292 107.317 338.599 107.903C338.907 108.474 339.324 108.921 339.852 109.243C340.379 109.565 341.038 109.727 341.829 109.727C342.605 109.727 343.25 109.565 343.763 109.243C344.29 108.921 344.708 108.474 345.015 107.903C345.323 107.317 345.542 106.636 345.674 105.859C345.806 105.083 345.872 104.248 345.872 103.354V102.893C345.872 102.029 345.806 101.216 345.674 100.454C345.542 99.6777 345.323 98.9966 345.015 98.4106C344.708 97.8101 344.29 97.3413 343.763 97.0044C343.235 96.6675 342.576 96.499 341.785 96.499C341.009 96.499 340.357 96.6675 339.83 97.0044C339.317 97.3413 338.907 97.8101 338.599 98.4106C338.292 98.9966 338.072 99.6777 337.94 100.454C337.808 101.216 337.742 102.029 337.742 102.893ZM369.031 108.32C369.031 107.91 368.892 107.559 368.614 107.266C368.35 106.958 367.881 106.68 367.208 106.431C366.534 106.167 365.589 105.903 364.373 105.64C363.216 105.391 362.125 105.061 361.099 104.651C360.088 104.241 359.202 103.743 358.44 103.157C357.679 102.571 357.078 101.875 356.639 101.069C356.214 100.264 356.001 99.3408 356.001 98.3008C356.001 97.29 356.214 96.3379 356.639 95.4443C357.078 94.5361 357.715 93.7378 358.55 93.0493C359.4 92.3462 360.433 91.7969 361.648 91.4014C362.864 90.9912 364.249 90.7861 365.801 90.7861C367.94 90.7861 369.786 91.1157 371.338 91.7749C372.891 92.4194 374.085 93.3276 374.92 94.4995C375.77 95.6567 376.194 96.9971 376.194 98.5205H368.79C368.79 97.9199 368.687 97.4072 368.482 96.9824C368.292 96.5576 367.977 96.2354 367.537 96.0156C367.098 95.7812 366.512 95.6641 365.779 95.6641C365.267 95.6641 364.798 95.7593 364.373 95.9497C363.963 96.1401 363.633 96.4038 363.384 96.7407C363.135 97.0776 363.011 97.4731 363.011 97.9272C363.011 98.2495 363.084 98.5425 363.23 98.8062C363.392 99.0552 363.633 99.2896 363.956 99.5093C364.278 99.7144 364.688 99.9048 365.186 100.081C365.684 100.242 366.285 100.388 366.988 100.52C368.584 100.813 370.079 101.23 371.47 101.772C372.862 102.314 373.99 103.083 374.854 104.08C375.733 105.076 376.172 106.416 376.172 108.101C376.172 109.155 375.931 110.129 375.447 111.023C374.964 111.902 374.268 112.678 373.36 113.352C372.452 114.011 371.36 114.524 370.086 114.89C368.812 115.256 367.376 115.439 365.779 115.439C363.509 115.439 361.59 115.037 360.022 114.231C358.455 113.411 357.269 112.385 356.463 111.155C355.672 109.91 355.276 108.65 355.276 107.375H362.176C362.205 108.108 362.381 108.708 362.703 109.177C363.04 109.646 363.487 109.99 364.043 110.21C364.6 110.43 365.245 110.54 365.977 110.54C366.651 110.54 367.208 110.444 367.647 110.254C368.101 110.063 368.445 109.807 368.68 109.485C368.914 109.148 369.031 108.76 369.031 108.32ZM378.721 103.354V102.893C378.721 101.15 378.97 99.5459 379.468 98.0811C379.966 96.6016 380.699 95.3198 381.666 94.2358C382.632 93.1519 383.826 92.3096 385.247 91.709C386.668 91.0938 388.309 90.7861 390.169 90.7861C392.044 90.7861 393.692 91.0938 395.113 91.709C396.548 92.3096 397.75 93.1519 398.716 94.2358C399.683 95.3198 400.416 96.6016 400.914 98.0811C401.412 99.5459 401.661 101.15 401.661 102.893V103.354C401.661 105.083 401.412 106.687 400.914 108.167C400.416 109.631 399.683 110.913 398.716 112.012C397.75 113.096 396.556 113.938 395.135 114.539C393.714 115.139 392.073 115.439 390.213 115.439C388.353 115.439 386.705 115.139 385.269 114.539C383.833 113.938 382.632 113.096 381.666 112.012C380.699 110.913 379.966 109.631 379.468 108.167C378.97 106.687 378.721 105.083 378.721 103.354ZM386.126 102.893V103.354C386.126 104.248 386.192 105.083 386.324 105.859C386.456 106.636 386.675 107.317 386.983 107.903C387.291 108.474 387.708 108.921 388.235 109.243C388.763 109.565 389.422 109.727 390.213 109.727C390.989 109.727 391.634 109.565 392.146 109.243C392.674 108.921 393.091 108.474 393.399 107.903C393.707 107.317 393.926 106.636 394.058 105.859C394.19 105.083 394.256 104.248 394.256 103.354V102.893C394.256 102.029 394.19 101.216 394.058 100.454C393.926 99.6777 393.707 98.9966 393.399 98.4106C393.091 97.8101 392.674 97.3413 392.146 97.0044C391.619 96.6675 390.96 96.499 390.169 96.499C389.393 96.499 388.741 96.6675 388.213 97.0044C387.701 97.3413 387.291 97.8101 386.983 98.4106C386.675 98.9966 386.456 99.6777 386.324 100.454C386.192 101.216 386.126 102.029 386.126 102.893ZM412.427 95.7959V124.141H405.022V91.2256H411.922L412.427 95.7959ZM427.017 102.827V103.289C427.017 105.017 426.819 106.621 426.424 108.101C426.028 109.58 425.442 110.869 424.666 111.968C423.89 113.066 422.923 113.923 421.766 114.539C420.623 115.139 419.297 115.439 417.789 115.439C416.368 115.439 415.145 115.125 414.119 114.495C413.094 113.865 412.237 112.993 411.548 111.88C410.86 110.767 410.303 109.492 409.878 108.057C409.454 106.621 409.117 105.105 408.868 103.508V102.915C409.117 101.201 409.454 99.6118 409.878 98.147C410.303 96.6675 410.86 95.3784 411.548 94.2798C412.237 93.1812 413.086 92.3242 414.097 91.709C415.123 91.0938 416.346 90.7861 417.767 90.7861C419.275 90.7861 420.601 91.0718 421.744 91.6431C422.901 92.2144 423.868 93.0347 424.644 94.104C425.435 95.1587 426.028 96.4258 426.424 97.9053C426.819 99.3848 427.017 101.025 427.017 102.827ZM419.612 103.289V102.827C419.612 101.904 419.546 101.062 419.415 100.3C419.283 99.5239 419.07 98.8501 418.777 98.2788C418.499 97.7075 418.125 97.2681 417.657 96.9604C417.188 96.6528 416.609 96.499 415.921 96.499C415.13 96.499 414.463 96.6235 413.921 96.8726C413.394 97.1069 412.969 97.4731 412.647 97.9712C412.339 98.4546 412.12 99.0625 411.988 99.7949C411.871 100.513 411.819 101.355 411.834 102.322V104.124C411.805 105.237 411.915 106.218 412.164 107.068C412.413 107.903 412.845 108.555 413.46 109.023C414.075 109.492 414.91 109.727 415.965 109.727C416.668 109.727 417.254 109.565 417.723 109.243C418.191 108.906 418.565 108.445 418.843 107.859C419.122 107.258 419.319 106.57 419.437 105.793C419.554 105.017 419.612 104.182 419.612 103.289ZM437.564 81.25V115H430.159V81.25H437.564ZM436.685 102.3L434.949 102.344C434.949 100.674 435.154 99.1357 435.564 97.7295C435.975 96.3232 436.561 95.1001 437.322 94.0601C438.084 93.02 439 92.2144 440.069 91.6431C441.138 91.0718 442.325 90.7861 443.628 90.7861C444.8 90.7861 445.87 90.9546 446.836 91.2915C447.818 91.6284 448.66 92.1704 449.363 92.9175C450.081 93.6646 450.63 94.6387 451.011 95.8398C451.407 97.041 451.604 98.5059 451.604 100.234V115H444.156V100.19C444.156 99.2236 444.017 98.4766 443.738 97.9492C443.475 97.4072 443.094 97.0337 442.596 96.8286C442.098 96.6089 441.49 96.499 440.772 96.499C439.908 96.499 439.205 96.6455 438.663 96.9385C438.121 97.2314 437.703 97.6416 437.41 98.1689C437.132 98.6816 436.941 99.2896 436.839 99.9927C436.736 100.696 436.685 101.465 436.685 102.3ZM463.008 112.209L469.161 91.2256H477.115L467.557 118.538C467.352 119.138 467.081 119.783 466.744 120.471C466.407 121.174 465.945 121.841 465.359 122.471C464.773 123.101 464.019 123.613 463.096 124.009C462.188 124.404 461.06 124.602 459.712 124.602C458.995 124.602 458.467 124.565 458.13 124.492C457.808 124.434 457.31 124.324 456.636 124.163V118.867C456.827 118.867 456.988 118.867 457.12 118.867C457.266 118.867 457.427 118.867 457.603 118.867C458.394 118.867 459.024 118.787 459.493 118.625C459.976 118.464 460.342 118.23 460.591 117.922C460.855 117.615 461.06 117.241 461.207 116.802L463.008 112.209ZM461.448 91.2256L466.128 107.859L466.941 115.703H461.976L453.516 91.2256H461.448Z" fill="#424241"/>
  <path d="M1363 15C1363 6.71573 1356.28 0 1348 0H1134V167H1348C1356.28 167 1363 160.284 1363 152V15Z" style="fill: rgb(145, 180, 228);"/>
  <path d="M1234.26 106.286H1262.74V111.857H1234.26V106.286ZM1239.96 117.429H1257.04V123H1239.96V117.429ZM1248.5 45C1240.95 45 1233.71 47.9349 1228.37 53.1592C1223.03 58.3834 1220.03 65.469 1220.03 72.8571C1219.84 76.9057 1220.63 80.9412 1222.34 84.6315C1224.05 88.3219 1226.64 91.5616 1229.88 94.0843C1232.73 96.675 1234.26 98.1514 1234.26 100.714H1239.96C1239.96 95.5886 1236.8 92.7193 1233.72 89.9614C1231.06 87.9676 1228.94 85.3658 1227.55 82.3838C1226.15 79.4019 1225.53 76.1308 1225.72 72.8571C1225.72 66.9466 1228.12 61.2781 1232.39 57.0988C1236.67 52.9194 1242.46 50.5714 1248.5 50.5714C1254.54 50.5714 1260.33 52.9194 1264.61 57.0988C1268.88 61.2781 1271.28 66.9466 1271.28 72.8571C1271.47 76.1333 1270.84 79.4059 1269.44 82.388C1268.04 85.3701 1265.92 87.9706 1263.25 89.9614C1260.2 92.7471 1257.04 95.5329 1257.04 100.714H1262.74C1262.74 98.1514 1264.25 96.675 1267.12 94.0564C1270.36 91.5381 1272.94 88.3031 1274.66 84.6176C1276.37 80.9321 1277.16 76.9014 1276.97 72.8571C1276.97 69.1989 1276.24 65.5765 1274.81 62.1967C1273.37 58.8169 1271.28 55.7459 1268.63 53.1592C1265.99 50.5724 1262.85 48.5205 1259.4 47.1205C1255.94 45.7205 1252.24 45 1248.5 45V45Z" fill="white"/>
  <text style="white-space: pre; fill: rgb(51, 51, 51); font-family: Arial, sans-serif; font-size: 30.5px;" x="275.871" y="51.249"> </text>
  <text style="fill: rgb(51, 51, 51); font-family: &quot;Nunito Sans&quot;; font-size: 23px; font-weight: 600; white-space: pre;" x="95.955" y="53.43">&gt; PharmaConnect</text>
</svg>