<?xml version="1.0" encoding="utf-8"?>
<svg width="1363" height="167" viewBox="0 0 1363 167" fill="none" xmlns="http://www.w3.org/2000/svg">
  <rect width="1363" height="167" rx="15" fill="#F0F0F0"/>
  <path d="M0 15C0 6.71573 6.71573 0 15 0H37V167H15C6.71573 167 0 160.284 0 152V15Z" fill="#424241"/>
  <path d="M1363 15C1363 6.71573 1356.28 0 1348 0H1134V167H1348C1356.28 167 1363 160.284 1363 152V15Z" style="fill: rgb(145, 180, 228);"/>
  <path fill-rule="evenodd" clip-rule="evenodd" d="M1203 49C1203 47.8954 1203.9 47 1205 47H1292.5C1293.6 47 1294.5 47.8954 1294.5 49V118.996C1294.5 120.101 1293.6 120.996 1292.5 120.996H1205C1203.9 120.996 1203 120.101 1203 118.996V49ZM1207 51V55.4945H1290.5V51H1207ZM1290.5 59.4945H1235.44V116.996H1290.5V59.4945ZM1231.44 116.996V59.4945H1207V116.996H1231.44Z" fill="white"/>
  <path fill-rule="evenodd" clip-rule="evenodd" d="M1209.97 64.8003C1209.97 63.6957 1210.87 62.8003 1211.97 62.8003H1225.97C1227.08 62.8003 1227.97 63.6957 1227.97 64.8003V84.1955C1227.97 85.3001 1227.08 86.1955 1225.97 86.1955H1211.97C1210.87 86.1955 1209.97 85.3001 1209.97 84.1955V64.8003ZM1213.97 66.8003V82.1955H1223.97V66.8003H1213.97ZM1239.58 65.6963C1239.58 64.5917 1240.47 63.6963 1241.58 63.6963H1284.5C1285.61 63.6963 1286.5 64.5917 1286.5 65.6963V111.905C1286.5 113.009 1285.61 113.905 1284.5 113.905H1241.58C1240.47 113.905 1239.58 113.009 1239.58 111.905V65.6963ZM1243.58 67.6963V109.905H1282.5V67.6963H1243.58ZM1209.81 95.9362C1209.81 94.8316 1210.71 93.9362 1211.81 93.9362H1220.73C1221.84 93.9362 1222.73 94.8316 1222.73 95.9362C1222.73 97.0408 1221.84 97.9362 1220.73 97.9362H1211.81C1210.71 97.9362 1209.81 97.0408 1209.81 95.9362ZM1209.81 102.936C1209.81 101.832 1210.71 100.936 1211.81 100.936H1226.35C1227.46 100.936 1228.35 101.832 1228.35 102.936C1228.35 104.041 1227.46 104.936 1226.35 104.936H1211.81C1210.71 104.936 1209.81 104.041 1209.81 102.936ZM1209.81 109.936C1209.81 108.832 1210.71 107.936 1211.81 107.936H1220.73C1221.84 107.936 1222.73 108.832 1222.73 109.936C1222.73 111.041 1221.84 111.936 1220.73 111.936H1211.81C1210.71 111.936 1209.81 111.041 1209.81 109.936Z" fill="white"/>
  <text style="fill: rgb(126, 119, 119); font-family: Arial, sans-serif; font-size: 24px; font-weight: 700; white-space: pre;" x="92.684" y="64.334">&gt; PharmaConnect</text>
  <text style="fill: rgb(70, 66, 66); font-family: Arial, sans-serif; font-size: 46px; font-weight: 700; white-space: pre;" x="85.793" y="117.218">Tech Stack</text>
</svg>