<?xml version="1.0" encoding="utf-8"?>
<svg width="1363" height="301" viewBox="0 0 1363 301" fill="none" xmlns="http://www.w3.org/2000/svg">
  <rect width="1363" height="301" rx="15" fill="#F0F0F0"/>
  <path d="M0 15C0 6.71573 6.71573 0 15 0H37V301H15C6.71573 301 0 294.284 0 286V15Z" style="fill: rgb(145, 180, 228);"/>
  <rect x="92" y="181" width="1179" height="80" rx="13.3333" fill="#CCCCCC"/>
  <rect x="107.333" y="196.333" width="208" height="49.3333" rx="4.66667" fill="#888888" stroke="#888888" stroke-width="4"/>
  <rect x="339.333" y="196.333" width="208" height="49.3333" rx="4.66667" fill="#888888" stroke="#888888" stroke-width="4"/>
  <path d="M404.156 213.167H410.125C411.292 213.167 412.305 213.34 413.167 213.687C414.028 214.035 414.691 214.549 415.156 215.229C415.628 215.91 415.864 216.75 415.864 217.75C415.864 218.618 415.729 219.344 415.458 219.927C415.187 220.51 414.809 220.993 414.323 221.375C413.844 221.75 413.285 222.059 412.646 222.302L411.448 222.979H406.437L406.417 220.156H410.125C410.59 220.156 410.976 220.073 411.281 219.906C411.587 219.74 411.816 219.503 411.969 219.198C412.128 218.885 412.208 218.514 412.208 218.083C412.208 217.646 412.128 217.271 411.969 216.958C411.809 216.646 411.573 216.406 411.26 216.24C410.955 216.073 410.576 215.99 410.125 215.99H407.812V228.333H404.156V213.167ZM412.458 228.333L409.104 221.625L412.979 221.604L416.375 228.177V228.333H412.458ZM423.364 228.542C422.448 228.542 421.628 228.399 420.906 228.115C420.184 227.823 419.573 227.424 419.073 226.917C418.58 226.41 418.201 225.826 417.937 225.167C417.68 224.507 417.552 223.809 417.552 223.073V222.677C417.552 221.851 417.667 221.087 417.896 220.385C418.125 219.677 418.465 219.059 418.917 218.531C419.368 218.003 419.934 217.594 420.614 217.302C421.295 217.003 422.087 216.854 422.989 216.854C423.788 216.854 424.503 216.983 425.135 217.24C425.767 217.496 426.302 217.865 426.739 218.344C427.184 218.823 427.521 219.403 427.75 220.083C427.986 220.764 428.104 221.528 428.104 222.375V223.802H418.896V221.604H424.677V221.333C424.684 220.958 424.618 220.639 424.479 220.375C424.347 220.111 424.153 219.91 423.896 219.771C423.639 219.632 423.326 219.562 422.958 219.562C422.576 219.562 422.26 219.646 422.01 219.812C421.767 219.979 421.576 220.208 421.437 220.5C421.305 220.785 421.212 221.115 421.156 221.49C421.101 221.865 421.073 222.26 421.073 222.677V223.073C421.073 223.49 421.128 223.868 421.239 224.208C421.358 224.549 421.524 224.84 421.739 225.083C421.962 225.319 422.226 225.503 422.531 225.635C422.844 225.767 423.198 225.833 423.594 225.833C424.073 225.833 424.545 225.743 425.01 225.562C425.476 225.382 425.875 225.083 426.208 224.667L427.802 226.562C427.573 226.889 427.246 227.205 426.823 227.51C426.406 227.816 425.906 228.066 425.323 228.26C424.739 228.448 424.087 228.542 423.364 228.542ZM435.385 225.5V220.854C435.385 220.535 435.34 220.26 435.25 220.031C435.16 219.802 435.017 219.625 434.823 219.5C434.628 219.368 434.368 219.302 434.042 219.302C433.778 219.302 433.552 219.347 433.364 219.437C433.177 219.528 433.035 219.663 432.937 219.844C432.84 220.024 432.792 220.253 432.792 220.531H429.281C429.281 220.01 429.396 219.528 429.625 219.083C429.861 218.632 430.194 218.24 430.625 217.906C431.062 217.573 431.583 217.316 432.187 217.135C432.799 216.948 433.479 216.854 434.229 216.854C435.125 216.854 435.924 217.003 436.625 217.302C437.333 217.601 437.892 218.049 438.302 218.646C438.712 219.236 438.917 219.979 438.917 220.875V225.49C438.917 226.226 438.958 226.785 439.042 227.167C439.125 227.542 439.243 227.871 439.396 228.156V228.333H435.875C435.708 227.986 435.583 227.562 435.5 227.062C435.424 226.555 435.385 226.035 435.385 225.5ZM435.812 221.448L435.833 223.323H434.281C433.955 223.323 433.677 223.368 433.448 223.458C433.226 223.549 433.045 223.674 432.906 223.833C432.774 223.986 432.677 224.16 432.614 224.354C432.559 224.549 432.531 224.753 432.531 224.969C432.531 225.177 432.58 225.365 432.677 225.531C432.781 225.691 432.92 225.816 433.094 225.906C433.267 225.996 433.462 226.042 433.677 226.042C434.066 226.042 434.396 225.969 434.667 225.823C434.944 225.67 435.156 225.486 435.302 225.271C435.448 225.055 435.521 224.854 435.521 224.667L436.292 226.104C436.153 226.382 435.993 226.663 435.812 226.948C435.639 227.233 435.42 227.496 435.156 227.74C434.899 227.976 434.583 228.17 434.208 228.323C433.833 228.469 433.378 228.542 432.844 228.542C432.149 228.542 431.51 228.399 430.927 228.115C430.351 227.83 429.889 227.434 429.542 226.927C429.194 226.413 429.021 225.823 429.021 225.156C429.021 224.573 429.125 224.052 429.333 223.594C429.549 223.135 429.871 222.746 430.302 222.427C430.733 222.108 431.281 221.865 431.948 221.698C432.614 221.531 433.399 221.448 434.302 221.448H435.812ZM445.625 225.833C445.951 225.833 446.229 225.774 446.458 225.656C446.694 225.531 446.871 225.358 446.989 225.135C447.114 224.906 447.174 224.632 447.167 224.312H450.469C450.476 225.16 450.267 225.903 449.844 226.542C449.427 227.174 448.858 227.667 448.135 228.021C447.42 228.368 446.611 228.542 445.708 228.542C444.826 228.542 444.055 228.399 443.396 228.115C442.736 227.823 442.184 227.42 441.739 226.906C441.302 226.385 440.972 225.778 440.75 225.083C440.535 224.389 440.427 223.635 440.427 222.823V222.583C440.427 221.771 440.535 221.017 440.75 220.323C440.972 219.621 441.302 219.014 441.739 218.5C442.184 217.979 442.733 217.576 443.385 217.292C444.045 217 444.812 216.854 445.687 216.854C446.625 216.854 447.451 217.031 448.167 217.385C448.889 217.74 449.455 218.253 449.864 218.927C450.274 219.601 450.476 220.417 450.469 221.375H447.167C447.174 221.035 447.121 220.729 447.01 220.458C446.899 220.187 446.726 219.972 446.489 219.812C446.26 219.646 445.965 219.562 445.604 219.562C445.243 219.562 444.951 219.642 444.729 219.802C444.507 219.962 444.337 220.184 444.219 220.469C444.108 220.746 444.031 221.066 443.989 221.427C443.955 221.788 443.937 222.174 443.937 222.583V222.823C443.937 223.24 443.955 223.632 443.989 224C444.031 224.361 444.111 224.68 444.229 224.958C444.347 225.229 444.517 225.444 444.739 225.604C444.962 225.757 445.257 225.833 445.625 225.833ZM457.906 217.062V219.5H451.114V217.062H457.906ZM452.542 214.26H456.052V224.656C456.052 224.955 456.087 225.187 456.156 225.354C456.226 225.514 456.344 225.628 456.51 225.698C456.684 225.76 456.913 225.792 457.198 225.792C457.399 225.792 457.566 225.788 457.698 225.781C457.83 225.767 457.955 225.75 458.073 225.729V228.24C457.774 228.337 457.462 228.41 457.135 228.458C456.809 228.514 456.462 228.542 456.094 228.542C455.344 228.542 454.701 228.424 454.167 228.187C453.639 227.951 453.236 227.58 452.958 227.073C452.68 226.566 452.542 225.906 452.542 225.094V214.26ZM465.5 223.573V213.167H469.146V223.573C469.146 224.587 468.913 225.465 468.448 226.208C467.989 226.951 467.364 227.528 466.573 227.937C465.788 228.34 464.906 228.542 463.927 228.542C462.913 228.542 462.01 228.371 461.219 228.031C460.434 227.691 459.816 227.167 459.364 226.458C458.92 225.75 458.698 224.847 458.698 223.75H462.364C462.364 224.264 462.424 224.667 462.542 224.958C462.66 225.243 462.833 225.444 463.062 225.562C463.299 225.674 463.587 225.729 463.927 225.729C464.26 225.729 464.542 225.646 464.771 225.479C465.007 225.305 465.187 225.059 465.312 224.74C465.437 224.413 465.5 224.024 465.5 223.573ZM479.281 224.302C479.281 224.066 479.246 223.854 479.177 223.667C479.108 223.472 478.979 223.292 478.792 223.125C478.604 222.958 478.333 222.792 477.979 222.625C477.632 222.451 477.174 222.271 476.604 222.083C475.937 221.861 475.295 221.611 474.677 221.333C474.059 221.049 473.507 220.719 473.021 220.344C472.535 219.962 472.149 219.517 471.864 219.01C471.58 218.496 471.437 217.899 471.437 217.219C471.437 216.566 471.583 215.979 471.875 215.458C472.167 214.93 472.573 214.483 473.094 214.115C473.621 213.74 474.239 213.455 474.948 213.26C475.656 213.059 476.43 212.958 477.271 212.958C478.382 212.958 479.361 213.153 480.208 213.542C481.062 213.924 481.729 214.469 482.208 215.177C482.694 215.878 482.937 216.708 482.937 217.667H479.302C479.302 217.285 479.222 216.948 479.062 216.656C478.91 216.365 478.677 216.135 478.364 215.969C478.052 215.802 477.66 215.719 477.187 215.719C476.729 215.719 476.344 215.788 476.031 215.927C475.719 216.066 475.483 216.253 475.323 216.49C475.163 216.719 475.083 216.972 475.083 217.25C475.083 217.479 475.146 217.687 475.271 217.875C475.403 218.055 475.587 218.226 475.823 218.385C476.066 218.545 476.358 218.698 476.698 218.844C477.045 218.99 477.434 219.132 477.864 219.271C478.67 219.528 479.385 219.816 480.01 220.135C480.642 220.448 481.174 220.805 481.604 221.208C482.042 221.604 482.371 222.055 482.594 222.562C482.823 223.069 482.937 223.642 482.937 224.281C482.937 224.962 482.805 225.566 482.542 226.094C482.278 226.621 481.899 227.069 481.406 227.437C480.913 227.799 480.323 228.073 479.635 228.26C478.948 228.448 478.18 228.542 477.333 228.542C476.555 228.542 475.788 228.444 475.031 228.25C474.281 228.049 473.601 227.743 472.989 227.333C472.378 226.917 471.889 226.385 471.521 225.74C471.16 225.087 470.979 224.312 470.979 223.417H474.646C474.646 223.861 474.705 224.236 474.823 224.542C474.941 224.847 475.114 225.094 475.344 225.281C475.573 225.462 475.854 225.594 476.187 225.677C476.521 225.753 476.903 225.792 477.333 225.792C477.799 225.792 478.174 225.726 478.458 225.594C478.743 225.455 478.951 225.274 479.083 225.052C479.215 224.823 479.281 224.573 479.281 224.302Z" fill="white"/>
  <rect x="571.333" y="196.333" width="208" height="49.3333" rx="4.66667" fill="#888888" stroke="#888888" stroke-width="4"/>
  <rect x="803.333" y="196.333" width="208" height="49.3333" rx="4.66667" fill="#888888" stroke="#888888" stroke-width="4"/>
  <path d="M 1108.088 212.077 L 1108.088 227.243 L 1104.432 227.243 L 1104.432 212.077 L 1108.088 212.077 Z M 1113.984 218.389 L 1113.984 221.202 L 1107.046 221.202 L 1107.046 218.389 L 1113.984 218.389 Z M 1114.578 212.077 L 1114.578 214.9 L 1107.046 214.9 L 1107.046 212.077 L 1114.578 212.077 Z M 1119.64 215.972 L 1119.64 227.243 L 1116.119 227.243 L 1116.119 215.972 L 1119.64 215.972 Z M 1115.911 213.066 C 1115.911 212.566 1116.092 212.156 1116.453 211.837 C 1116.814 211.518 1117.283 211.358 1117.859 211.358 C 1118.435 211.358 1118.904 211.518 1119.265 211.837 C 1119.626 212.156 1119.807 212.566 1119.807 213.066 C 1119.807 213.566 1119.626 213.976 1119.265 214.295 C 1118.904 214.615 1118.435 214.775 1117.859 214.775 C 1117.283 214.775 1116.814 214.615 1116.453 214.295 C 1116.092 213.976 1115.911 213.566 1115.911 213.066 Z M 1128.89 215.972 L 1132.078 215.972 L 1132.078 226.806 C 1132.078 227.847 1131.838 228.729 1131.359 229.452 C 1130.88 230.181 1130.21 230.733 1129.349 231.108 C 1128.494 231.49 1127.494 231.681 1126.349 231.681 C 1125.842 231.681 1125.324 231.615 1124.796 231.483 C 1124.269 231.358 1123.776 231.17 1123.317 230.92 C 1122.859 230.67 1122.474 230.361 1122.161 229.993 L 1123.63 227.931 C 1123.915 228.25 1124.272 228.521 1124.703 228.743 C 1125.133 228.972 1125.64 229.087 1126.224 229.087 C 1126.731 229.087 1127.154 228.997 1127.494 228.816 C 1127.842 228.636 1128.106 228.372 1128.286 228.025 C 1128.467 227.684 1128.557 227.271 1128.557 226.785 L 1128.557 218.639 L 1128.89 215.972 Z M 1121.401 221.743 L 1121.401 221.525 C 1121.401 220.67 1121.505 219.893 1121.713 219.191 C 1121.928 218.483 1122.234 217.875 1122.63 217.368 C 1123.033 216.854 1123.519 216.459 1124.088 216.181 C 1124.658 215.903 1125.3 215.764 1126.015 215.764 C 1126.786 215.764 1127.418 215.913 1127.911 216.212 C 1128.411 216.504 1128.81 216.913 1129.109 217.441 C 1129.415 217.969 1129.651 218.587 1129.817 219.295 C 1129.991 219.997 1130.137 220.754 1130.255 221.566 L 1130.255 221.827 C 1130.137 222.59 1129.974 223.313 1129.765 223.993 C 1129.564 224.667 1129.3 225.264 1128.974 225.785 C 1128.647 226.306 1128.237 226.715 1127.744 227.014 C 1127.258 227.306 1126.675 227.452 1125.994 227.452 C 1125.286 227.452 1124.647 227.309 1124.078 227.025 C 1123.515 226.74 1123.033 226.34 1122.63 225.827 C 1122.234 225.313 1121.928 224.709 1121.713 224.014 C 1121.505 223.32 1121.401 222.563 1121.401 221.743 Z M 1124.911 221.525 L 1124.911 221.743 C 1124.911 222.167 1124.949 222.559 1125.026 222.92 C 1125.109 223.281 1125.234 223.601 1125.401 223.879 C 1125.567 224.15 1125.772 224.361 1126.015 224.514 C 1126.265 224.667 1126.557 224.743 1126.89 224.743 C 1127.397 224.743 1127.807 224.636 1128.119 224.42 C 1128.432 224.205 1128.658 223.9 1128.796 223.504 C 1128.935 223.108 1128.994 222.643 1128.974 222.108 L 1128.974 221.285 C 1128.987 220.827 1128.956 220.424 1128.88 220.077 C 1128.803 219.722 1128.682 219.427 1128.515 219.191 C 1128.356 218.955 1128.14 218.778 1127.869 218.66 C 1127.606 218.535 1127.286 218.472 1126.911 218.472 C 1126.585 218.472 1126.296 218.549 1126.046 218.702 C 1125.796 218.854 1125.588 219.07 1125.421 219.347 C 1125.255 219.618 1125.126 219.941 1125.036 220.316 C 1124.953 220.684 1124.911 221.087 1124.911 221.525 Z M 1137.64 218.358 L 1137.64 227.243 L 1134.13 227.243 L 1134.13 215.972 L 1137.421 215.972 L 1137.64 218.358 Z M 1137.213 221.222 L 1136.411 221.243 C 1136.411 220.452 1136.505 219.722 1136.692 219.056 C 1136.88 218.389 1137.158 217.809 1137.526 217.316 C 1137.894 216.823 1138.345 216.441 1138.88 216.17 C 1139.421 215.9 1140.046 215.764 1140.755 215.764 C 1141.248 215.764 1141.696 215.84 1142.099 215.993 C 1142.501 216.139 1142.849 216.372 1143.14 216.691 C 1143.432 217.004 1143.654 217.413 1143.807 217.92 C 1143.967 218.42 1144.046 219.021 1144.046 219.722 L 1144.046 227.243 L 1140.536 227.243 L 1140.536 220.17 C 1140.536 219.691 1140.481 219.33 1140.369 219.087 C 1140.265 218.844 1140.112 218.681 1139.911 218.597 C 1139.71 218.514 1139.463 218.472 1139.171 218.472 C 1138.866 218.472 1138.592 218.542 1138.349 218.681 C 1138.106 218.82 1137.897 219.014 1137.724 219.264 C 1137.557 219.507 1137.428 219.795 1137.338 220.129 C 1137.255 220.462 1137.213 220.827 1137.213 221.222 Z M 1143.651 221.222 L 1142.671 221.243 C 1142.671 220.452 1142.758 219.722 1142.932 219.056 C 1143.112 218.389 1143.38 217.809 1143.734 217.316 C 1144.095 216.823 1144.543 216.441 1145.078 216.17 C 1145.612 215.9 1146.234 215.764 1146.942 215.764 C 1147.456 215.764 1147.928 215.84 1148.359 215.993 C 1148.79 216.146 1149.161 216.393 1149.474 216.733 C 1149.786 217.073 1150.029 217.525 1150.203 218.087 C 1150.376 218.643 1150.463 219.33 1150.463 220.15 L 1150.463 227.243 L 1146.942 227.243 L 1146.942 220.15 C 1146.942 219.684 1146.887 219.334 1146.776 219.097 C 1146.671 218.854 1146.519 218.691 1146.317 218.608 C 1146.116 218.518 1145.876 218.472 1145.599 218.472 C 1145.265 218.472 1144.977 218.542 1144.734 218.681 C 1144.491 218.82 1144.286 219.014 1144.119 219.264 C 1143.96 219.507 1143.842 219.795 1143.765 220.129 C 1143.689 220.462 1143.651 220.827 1143.651 221.222 Z M 1158.328 224.41 L 1158.328 219.764 C 1158.328 219.445 1158.283 219.17 1158.192 218.941 C 1158.102 218.712 1157.96 218.535 1157.765 218.41 C 1157.571 218.278 1157.31 218.212 1156.984 218.212 C 1156.72 218.212 1156.494 218.257 1156.307 218.347 C 1156.119 218.438 1155.977 218.573 1155.88 218.754 C 1155.783 218.934 1155.734 219.163 1155.734 219.441 L 1152.224 219.441 C 1152.224 218.92 1152.338 218.438 1152.567 217.993 C 1152.803 217.542 1153.137 217.15 1153.567 216.816 C 1154.005 216.483 1154.526 216.226 1155.13 216.045 C 1155.741 215.858 1156.421 215.764 1157.171 215.764 C 1158.067 215.764 1158.866 215.913 1159.567 216.212 C 1160.276 216.511 1160.835 216.959 1161.244 217.556 C 1161.654 218.146 1161.859 218.889 1161.859 219.785 L 1161.859 224.4 C 1161.859 225.136 1161.901 225.695 1161.984 226.077 C 1162.067 226.452 1162.185 226.781 1162.338 227.066 L 1162.338 227.243 L 1158.817 227.243 C 1158.651 226.896 1158.526 226.472 1158.442 225.972 C 1158.366 225.465 1158.328 224.945 1158.328 224.41 Z M 1158.755 220.358 L 1158.776 222.233 L 1157.224 222.233 C 1156.897 222.233 1156.619 222.278 1156.39 222.368 C 1156.168 222.459 1155.987 222.584 1155.849 222.743 C 1155.717 222.896 1155.619 223.07 1155.557 223.264 C 1155.501 223.459 1155.474 223.663 1155.474 223.879 C 1155.474 224.087 1155.522 224.275 1155.619 224.441 C 1155.724 224.601 1155.862 224.726 1156.036 224.816 C 1156.21 224.906 1156.404 224.952 1156.619 224.952 C 1157.008 224.952 1157.338 224.879 1157.609 224.733 C 1157.887 224.58 1158.099 224.396 1158.244 224.181 C 1158.39 223.965 1158.463 223.764 1158.463 223.577 L 1159.234 225.014 C 1159.095 225.292 1158.935 225.573 1158.755 225.858 C 1158.581 226.143 1158.362 226.406 1158.099 226.65 C 1157.842 226.886 1157.526 227.08 1157.151 227.233 C 1156.776 227.379 1156.321 227.452 1155.786 227.452 C 1155.092 227.452 1154.453 227.309 1153.869 227.025 C 1153.293 226.74 1152.831 226.344 1152.484 225.837 C 1152.137 225.323 1151.963 224.733 1151.963 224.066 C 1151.963 223.483 1152.067 222.962 1152.276 222.504 C 1152.491 222.045 1152.814 221.656 1153.244 221.337 C 1153.675 221.018 1154.224 220.775 1154.89 220.608 C 1155.557 220.441 1156.342 220.358 1157.244 220.358 L 1158.755 220.358 Z" fill="white"/>
  <text style="fill: rgb(115, 96, 96); font-family: Arial, sans-serif; font-size: 30.5px; font-weight: 700; white-space: pre;" x="93.774" y="69.786">Majd Harb</text>
  <text style="fill: rgb(0, 0, 0); font-family: Arial, sans-serif; font-size: 44px; font-weight: 700; white-space: pre;" x="91.593" y="141.752">PharmaConnect</text>
  <text style="fill: rgb(255, 255, 255); font-family: Arial, sans-serif; font-size: 24px; font-weight: 700; white-space: pre;" x="128.667" y="230.074">Mobile &amp; Web</text>
  <rect x="1028.926" y="195.594" width="208" height="49.333" rx="4.667" fill="#888888" stroke="#888888" stroke-width="4"/>
  <text style="fill: rgb(255, 255, 255); font-family: Arial, sans-serif; font-size: 23px; font-weight: 700; white-space: pre;" x="632.432" y="231.166">Flutter</text>
  <text style="white-space: pre; fill: rgb(51, 51, 51); font-family: Arial, sans-serif; font-size: 30.5px;" x="511.398" y="383.821"> </text>
  <text style="white-space: pre; fill: rgb(51, 51, 51); font-family: Arial, sans-serif; font-size: 30.5px;" x="704.398" y="427.437"> </text>
  <text style="fill: rgb(255, 255, 255); font-family: Arial, sans-serif; font-size: 23px; font-weight: 700; white-space: pre;" x="866.649" y="230.62">Laravel</text>
  <text style="fill: rgb(255, 255, 255); font-family: Arial, sans-serif; font-size: 23px; font-weight: 700; white-space: pre;" x="1089.377" y="230.619">Figma</text>
</svg>